<svg xmlns="http://www.w3.org/2000/svg" viewBox="0 0 320 480" role="img" aria-label="Valera hero portrait">
  <defs>
    <linearGradient id="bg" x1="0" y1="0" x2="1" y2="1">
      <stop offset="0" stop-color="#11151b"/>
      <stop offset=".55" stop-color="#27343a"/>
      <stop offset="1" stop-color="#6b3b13"/>
    </linearGradient>
    <linearGradient id="muzzle" x1="0" y1="0" x2="1" y2="0">
      <stop offset="0" stop-color="#ffdc72"/>
      <stop offset=".45" stop-color="#ff7a18"/>
      <stop offset="1" stop-color="#5b1607"/>
    </linearGradient>
  </defs>
  <rect width="320" height="480" fill="url(#bg)"/>
  <circle cx="252" cy="96" r="118" fill="#ff8a1d" opacity=".14"/>
  <circle cx="63" cy="330" r="150" fill="#62d2ff" opacity=".1"/>
  <path d="M37 307h215v34H37z" fill="#111820" transform="rotate(-12 144 324)"/>
  <path d="M211 283h66v18h-66z" fill="#1e2a32" transform="rotate(-12 244 292)"/>
  <path d="M270 270h39v32h-39z" fill="url(#muzzle)" transform="rotate(-12 290 286)"/>
  <path d="M86 333h42l13 72H91z" fill="#202a31"/>
  <path d="M129 298h98l45 182H84z" fill="#182128"/>
  <path d="M141 298h74l18 182H117z" fill="#394a37"/>
  <path d="M118 339h118v22H118z" fill="#d66a18"/>
  <path d="M103 172c0-55 38-95 91-95s87 38 87 94v52c0 70-36 121-87 121s-91-51-91-121z" fill="#111217"/>
  <path d="M125 187c0-41 29-72 68-72s67 31 67 72v32c0 52-30 92-67 92s-68-40-68-92z" fill="#d79a72"/>
  <path d="M117 184c18-64 74-81 145-42-11-43-40-67-76-67-49 0-82 42-82 98z" fill="#090b0f"/>
  <path d="M139 208c12 7 25 7 37 0" fill="none" stroke="#2b1b1c" stroke-width="5" stroke-linecap="round"/>
  <path d="M205 208c11 7 25 7 37 0" fill="none" stroke="#2b1b1c" stroke-width="5" stroke-linecap="round"/>
  <path d="M171 256c17 9 36 9 53 0" fill="none" stroke="#703321" stroke-width="6" stroke-linecap="round"/>
  <path d="M108 134c22-57 104-77 153-19 1-74-147-83-153 19z" fill="#05070a"/>
  <path d="M70 421h222v59H70z" fill="#07090d" opacity=".65"/>
  <path d="M47 311h130v12H47z" fill="#2f4048" transform="rotate(-12 112 317)"/>
  <circle cx="226" cy="305" r="18" fill="#0b0f14"/>
</svg>
