{
  "accessors": [
    {
      "bufferView": 0,
      "componentType": 5126,
      "count": 8910,
      "max": [
        98.72294616699219,
        99.75765991210938,
        98.72315216064453
      ],
      "min": [
        -98.72309875488281,
        -99.75769805908203,
        -98.72309875488281
      ],
      "type": "VEC3"
    },
    {
      "bufferView": 1,
      "componentType": 5125,
      "count": 18755,
      "type": "SCALAR"
    },
    {
      "bufferView": 2,
      "componentType": 5126,
      "count": 8910,
      "type": "VEC3"
    },
    {
      "bufferView": 3,
      "componentType": 5126,
      "count": 8910,
      "type": "VEC4"
    },
    {
      "bufferView": 4,
      "componentType": 5126,
      "count": 8910,
      "type": "VEC2"
    }
  ],
  "asset": {
    "version": "2.0"
  },
  "bufferViews": [
    {
      "buffer": 0,
      "byteLength": 106920,
      "target": 34962
    },
    {
      "buffer": 1,
      "byteLength": 75020,
      "target": 34963
    },
    {
      "buffer": 2,
      "byteLength": 106920,
      "target": 34962
    },
    {
      "buffer": 3,
      "byteLength": 142560,
      "target": 34962
    },
    {
      "buffer": 4,
      "byteLength": 71280,
      "target": 34962
    }
  ],
  "buffers": [
    {
      "byteLength": 106920,
      "uri": "data:application/octet-stream;base64,"
    },
    {
      "byteLength": 75020,
      "uri": "data:application/octet-stream;base64,"
    },
    {
      "byteLength": 106920,
      "uri": "data:application/octet-stream;base64,"
    },
    {
      "byteLength": 142560,
      "uri": "data:application/octet-stream;base64,"
    },
    {
      "byteLength": 71280,
      "uri": "data:application/octet-stream;base64,"
    }
  ],
  "extensionsUsed": [
    "KHR_materials_emissive_strength"
  ],
  "images": [
    {
      "uri": "textures/Stylized_FieldAtNight_Panorama_002.png"
    }
  ],
  "materials": [
    {
      "doubleSided": true,
      "extensions": {
        "KHR_materials_emissive_strength": {
          "emissiveStrength": 1.0
        }
      },
      "name": "Material.001",
      "pbrMetallicRoughness": {
        "baseColorTexture": {
          "index": 0
        },
        "metallicFactor": 0.0,
        "roughnessFactor": 0.17888544499874115
      }
    }
  ],
  "meshes": [
    {
      "name": "Sphere_Material.001_0",
      "primitives": [
        {
          "attributes": {
            "NORMAL": 2,
            "POSITION": 0,
            "TANGENT": 3,
            "TEXCOORD_0": 4
          },
          "indices": 1,
          "material": 0,
          "mode": 5
        }
      ]
    }
  ],
  "nodes": [
    {
      "mesh": 0,
      "name": "Sphere_Material.001_0"
    },
    {
      "children": [
        0
      ],
      "name": "Sphere",
      "rotation": [
        0.0,
        0.0,
        0.0,
        1.0
      ],
      "scale": [
        -987.0040283203125,
        -987.0040283203125,
        -987.0040283203125
      ],
      "translation": [
        63721.80078125,
        0.0,
        0.0
      ]
    },
    {
      "children": [
        1
      ],
      "name": "RootNode"
    },
    {
      "children": [
        2
      ],
      "name": "creepy misty field skybox 00002",
      "rotation": [
        1.1102230246251565e-16,
        0.0,
        0.0,
        1.0
      ],
      "scale": [
        0.009999999776482582,
        0.009999999776482582,
        0.009999999776482582
      ],
      "translation": [
        0.0,
        0.0,
        0.0
      ]
    }
  ],
  "samplers": [
    {
      "magFilter": 9729,
      "minFilter": 9987,
      "wrapS": 10497,
      "wrapT": 10497
    }
  ],
  "scene": 0,
  "scenes": [
    {
      "nodes": [
        3
      ]
    }
  ],
  "textures": [
    {
      "sampler": 0,
      "source": 0
    }
  ]
}
